Coordinates
version=1
nRows=16
nColumns=40
inDegrees=yes

Units are S.I. units (second, meters, Newtons, ...)
Angles are in degrees.

endheader
time	pelvis_tilt	pelvis_list	pelvis_rotation	pelvis_tx	pelvis_ty	pelvis_tz	hip_flexion_r	hip_adduction_r	hip_rotation_r	knee_angle_r	knee_angle_r_beta	ankle_angle_r	subtalar_angle_r	mtp_angle_r	hip_flexion_l	hip_adduction_l	hip_rotation_l	knee_angle_l	knee_angle_l_beta	ankle_angle_l	subtalar_angle_l	mtp_angle_l	lumbar_extension	lumbar_bending	lumbar_rotation	arm_flex_r	arm_add_r	arm_rot_r	elbow_flex_r	pro_sup_r	wrist_flex_r	wrist_dev_r	arm_flex_l	arm_add_l	arm_rot_l	elbow_flex_l	pro_sup_l	wrist_flex_l	wrist_dev_l
      1.27500000	    -10.03411667	      4.90652639	     -1.30976936	     -2.53733541	      0.97013301	      0.27860554	    -20.09104830	     -3.63215851	      2.09409901	      9.97503928	      9.97503928	    -32.19567827	      0.00000000	      0.00000000	     60.05839200	     -0.82632571	     -6.21149275	     72.29129832	     72.29129832	     -3.99671884	      0.00000000	      0.00000000	    -16.38389844	     -9.13548272	     15.65427149	     13.69239816	    -24.85936666	     16.42208556	    131.32607720	     48.73613738	      0.00000000	      0.00000000	    -49.73352700	    -27.08664061	    -21.68691291	    109.19783422	     46.88312075	      0.00000000	      0.00000000
      1.28000000	    -10.18329924	      5.23872230	     -1.37364635	     -2.51235139	      0.97263258	      0.27952709	    -20.77955817	     -3.92172181	      2.94234976	      9.81110851	      9.81110851	    -34.48483628	      0.00000000	      0.00000000	     59.53944000	     -0.59024852	     -6.27348609	     68.35262687	     68.35262687	     -4.31563783	      0.00000000	      0.00000000	    -16.25669022	    -10.05475916	     15.93814006	     12.84832107	    -25.43479596	     17.37568409	    132.12581501	     48.79397622	      0.00000000	      0.00000000	    -50.15018935	    -27.26575957	    -22.20874453	    110.33864951	     47.02288156	      0.00000000	      0.00000000
      1.28500000	    -10.34188157	      5.49386379	     -1.56846278	     -2.48755237	      0.97513633	      0.28075969	    -21.18803102	     -4.13487107	      4.10163726	     10.24192001	     10.24192001	    -35.68364036	      0.00000000	      0.00000000	     58.87936946	     -0.54041288	     -6.32187058	     64.34606242	     64.34606242	     -4.45202389	      0.00000000	      0.00000000	    -15.98296373	    -10.83121050	     16.35167609	     12.13332178	    -25.57349145	     18.14403896	    131.76953996	     48.79584109	      0.00000000	      0.00000000	    -49.86910543	    -27.43513396	    -22.48747642	    110.79079411	     47.06594090	      0.00000000	      0.00000000
      1.29000000	    -10.43455890	      5.64796496	     -1.83932942	     -2.46284218	      0.97777449	      0.28217597	    -21.51647364	     -4.22905330	      5.53067502	     10.97951146	     10.97951146	    -36.35487013	      0.00000000	      0.00000000	     58.00033595	     -0.63210183	     -6.33315431	     60.28721699	     60.28721699	     -4.42701214	      0.00000000	      0.00000000	    -15.82992965	    -11.54258001	     16.84988090	     11.26863588	    -26.03065893	     19.11515592	    131.51269716	     48.77759544	      0.00000000	      0.00000000	    -49.48169269	    -27.68766104	    -22.54834673	    111.28460439	     47.16061574	      0.00000000	      0.00000000
      1.29500000	    -10.44276618	      5.68831258	     -2.15161881	     -2.43820217	      0.98054368	      0.28369092	    -21.81261320	     -4.18188778	      7.16486366	     11.96468051	     11.96468051	    -36.68397881	      0.00000000	      0.00000000	     56.89189309	     -0.83554441	     -6.28938764	     56.19706636	     56.19706636	     -4.24195609	      0.00000000	      0.00000000	    -15.74899128	    -12.10340605	     17.44889872	     10.26719928	    -26.30469446	     19.82994884	    130.82308721	     48.68276505	      0.00000000	      0.00000000	    -48.60207297	    -28.01401205	    -22.36944539	    111.42144865	     47.26429745	      0.00000000	      0.00000000
      1.30000000	    -10.36038891	      5.60935280	     -2.45414544	     -2.41361890	      0.98339879	      0.28517103	    -22.09176069	     -3.97578821	      8.87788157	     13.19351802	     13.19351802	    -36.78789252	      0.00000000	      0.00000000	     55.57334710	     -1.10797824	     -6.17300750	     52.12334813	     52.12334813	     -3.90323001	      0.00000000	      0.00000000	    -15.77776948	    -12.50756320	     18.13623207	      9.07823579	    -26.53805975	     20.27656582	    129.93001098	     48.53835496	      0.00000000	      0.00000000	    -47.35609087	    -28.41742012	    -21.90745979	    111.37238326	     47.37879046	      0.00000000	      0.00000000
      1.30500000	    -10.17115504	      5.45570541	     -2.71615846	     -2.38905443	      0.98631158	      0.28649195	    -22.38543681	     -3.65804068	     10.51352414	     14.63837273	     14.63837273	    -36.75558444	      0.00000000	      0.00000000	     54.03414880	     -1.38155616	     -6.00885253	     48.07378963	     48.07378963	     -3.49055113	      0.00000000	      0.00000000	    -16.08362018	    -12.92130242	     18.30180914	      8.28622832	    -26.68457697	     20.77748944	    129.04969191	     48.49792609	      0.00000000	      0.00000000	    -46.80534840	    -28.34965835	    -21.92991455	    111.69139094	     47.40222564	      0.00000000	      0.00000000
      1.31000000	     -9.94857866	      5.08807279	     -2.88098907	     -2.36459555	      0.98904097	      0.28765239	    -22.61273258	     -3.05127822	     12.12835356	     16.32248211	     16.32248211	    -36.54623148	      0.00000000	      0.00000000	     52.44669981	     -1.75709032	     -5.69837180	     44.21750203	     44.21750203	     -3.06537619	      0.00000000	      0.00000000	    -16.33236494	    -13.00773519	     18.58991949	      7.04960462	    -26.93914387	     21.47146084	    127.40953140	     48.40777842	      0.00000000	      0.00000000	    -45.55192830	    -28.12743935	    -21.85270953	    112.13606489	     47.43573119	      0.00000000	      0.00000000
      1.31500000	     -9.62788771	      4.64453642	     -2.93722468	     -2.34012131	      0.99167396	      0.28848673	    -22.86163643	     -2.32250853	     13.47879883	     18.18308387	     18.18308387	    -36.34384910	      0.00000000	      0.00000000	     50.71774333	     -2.10346880	     -5.32781889	     40.53036183	     40.53036183	     -2.61078742	      0.00000000	      0.00000000	    -16.59813667	    -12.82692002	     19.08689138	      6.02321673	    -27.01905491	     21.51157324	    125.39704079	     48.20788643	      0.00000000	      0.00000000	    -43.12515830	    -28.45920259	    -20.71111393	    111.11888511	     47.42081590	      0.00000000	      0.00000000
      1.32000000	     -9.24024403	      4.09150620	     -2.82924989	     -2.31565976	      0.99406259	      0.28888787	    -23.07920060	     -1.42396971	     14.47004182	     20.26023382	     20.26023382	    -36.08618825	      0.00000000	      0.00000000	     48.95033492	     -2.42852196	     -4.88425873	     37.12557265	     37.12557265	     -2.28759207	      0.00000000	      0.00000000	    -17.15886349	    -12.56120767	     19.29997313	      4.77508804	    -27.18810935	     21.30924834	    123.59754049	     48.03507323	      0.00000000	      0.00000000	    -41.36583513	    -28.47416925	    -19.98191731	    111.05729383	     47.45073963	      0.00000000	      0.00000000
      1.32500000	     -8.84409547	      3.46949204	     -2.59314162	     -2.29127582	      0.99600141	      0.28892077	    -23.17961818	     -0.40943140	     15.13394299	     22.58006719	     22.58006719	    -35.70365571	      0.00000000	      0.00000000	     47.23870363	     -2.75537855	     -4.42244067	     34.07047579	     34.07047579	     -2.02748782	      0.00000000	      0.00000000	    -17.71409725	    -12.27292757	     19.05170529	      3.58519962	    -27.49899513	     21.45801917	    121.83107633	     47.90747819	      0.00000000	      0.00000000	    -40.08078730	    -28.24106871	    -19.62389542	    111.37854628	     47.48041165	      0.00000000	      0.00000000
      1.33000000	     -8.41283374	      2.77377026	     -2.19128107	     -2.26692310	      0.99750473	      0.28849305	    -23.18531546	      0.72455775	     15.39379244	     25.13450334	     25.13450334	    -35.25667307	      0.00000000	      0.00000000	     45.60053087	     -3.06530996	     -3.94045733	     31.46574048	     31.46574048	     -1.91002173	      0.00000000	      0.00000000	    -18.17568902	    -11.58007490	     19.86737192	      1.28258907	    -27.67075825	     19.90207696	    119.97300477	     47.61807343	      0.00000000	      0.00000000	    -36.57237437	    -29.43743557	    -16.91223675	    110.02301351	     47.48467587	      0.00000000	      0.00000000
      1.33500000	     -7.98946924	      2.04928204	     -1.65081494	     -2.24265941	      0.99843128	      0.28763637	    -23.01345109	      1.91320954	     15.22495925	     27.96554579	     27.96554579	    -34.67297183	      0.00000000	      0.00000000	     44.09295036	     -3.35228722	     -3.47943428	     29.31927121	     29.31927121	     -1.95313624	      0.00000000	      0.00000000	    -18.83553644	    -10.98572355	     19.30741601	      0.19379922	    -27.65551671	     19.48958271	    117.73868446	     47.42956648	      0.00000000	      0.00000000	    -35.14174890	    -28.89118697	    -16.65666152	    110.28223308	     47.50071977	      0.00000000	      0.00000000
      1.34000000	     -7.58713963	      1.33065672	     -1.04188073	     -2.21850842	      0.99873287	      0.28650598	    -22.62918314	      3.09311389	     14.74228833	     31.09508405	     31.09508405	    -33.87976173	      0.00000000	      0.00000000	     42.73474774	     -3.64178628	     -3.09145068	     27.65373307	     27.65373307	     -2.11355370	      0.00000000	      0.00000000	    -19.30285676	    -10.23603924	     19.05843808	     -1.12441221	    -27.81578030	     18.83347712	    115.39096242	     47.20490263	      0.00000000	      0.00000000	    -32.80752290	    -29.03888101	    -15.28983141	    109.71694454	     47.47948607	      0.00000000	      0.00000000
      1.34500000	     -7.22371649	      0.63786193	     -0.36578574	     -2.19448633	      0.99837977	      0.28508876	    -22.00948674	      4.22545773	     13.93319088	     34.51046774	     34.51046774	    -32.88293916	      0.00000000	      0.00000000	     41.53795162	     -3.90854153	     -2.74206533	     26.43826136	     26.43826136	     -2.45549994	      0.00000000	      0.00000000	    -19.83870215	     -9.54289629	     18.32702972	     -2.17627284	    -27.80931973	     18.29716834	    112.95090281	     47.00139431	      0.00000000	      0.00000000	    -31.35594031	    -28.60050643	    -14.80860017	    109.95253687	     47.49182808	      0.00000000	      0.00000000
      1.35000000	     -6.92048506	      0.00261447	      0.30748711	     -2.17061535	      0.99735145	      0.28353945	    -21.13048872	      5.24651736	     12.90129393	     38.20206145	     38.20206145	    -31.63573651	      0.00000000	      0.00000000	     40.50077378	     -4.16436745	     -2.46094868	     25.63901178	     25.63901178	     -2.92893114	      0.00000000	      0.00000000	    -20.28596873	     -8.87906187	     17.55106019	     -3.11668193	    -28.03908633	     17.96061620	    110.59159781	     46.81586310	      0.00000000	      0.00000000	    -29.93202576	    -28.23946796	    -14.33421930	    110.26410243	     47.50961028	      0.00000000	      0.00000000
